<svg width="20" height="26" viewBox="0 0 20 26" fill="none" xmlns="http://www.w3.org/2000/svg">
<path d="M16.9245 8.59321H15.7284V6.20088C15.7284 2.89946 13.049 0.220047 9.74755 0.220047C6.44613 0.220047 3.76672 2.89946 3.76672 6.20088V8.59321H2.57055C1.25477 8.59321 0.178223 9.66976 0.178223 10.9855V22.9472C0.178223 24.263 1.25477 25.3395 2.57055 25.3395H16.9245C18.2403 25.3395 19.3169 24.263 19.3169 22.9472V10.9855C19.3169 9.66976 18.2403 8.59321 16.9245 8.59321ZM9.74755 19.3587C8.43177 19.3587 7.35522 18.2822 7.35522 16.9664C7.35522 15.6506 8.43177 14.574 9.74755 14.574C11.0633 14.574 12.1399 15.6506 12.1399 16.9664C12.1399 18.2822 11.0633 19.3587 9.74755 19.3587ZM13.4557 8.59321H6.03944V6.20088C6.03944 4.15543 7.70211 2.49276 9.74755 2.49276C11.793 2.49276 13.4557 4.15543 13.4557 6.20088V8.59321Z" fill="#B3B3B3"/>
</svg>
